<svg width="57" height="57" viewBox="0 0 57 57" fill="none" xmlns="http://www.w3.org/2000/svg">
<path d="M8.1175 44.1878C7.19 45.1153 7.19 46.6191 8.1175 47.5466C9.04499 48.4741 10.5488 48.4741 11.4763 47.5466L8.1175 44.1878ZM20.4844 35.1797L22.1638 33.5003C21.2363 32.5728 19.7325 32.5728 18.805 33.5003L20.4844 35.1797ZM25.8281 40.5234L24.1487 42.2028C25.0762 43.1303 26.58 43.1303 27.5075 42.2028L25.8281 40.5234ZM37.8516 28.5L39.5309 26.8206C38.6034 25.8931 37.0997 25.8931 36.1722 26.8206L37.8516 28.5ZM46.8597 40.8669C47.7872 41.7944 49.291 41.7944 50.2184 40.8669C51.1459 39.9394 51.1459 38.4356 50.2184 37.5081L46.8597 40.8669ZM11.4763 47.5466L22.1638 36.8591L18.805 33.5003L8.1175 44.1878L11.4763 47.5466ZM18.805 36.8591L24.1487 42.2028L27.5075 38.8441L22.1638 33.5003L18.805 36.8591ZM27.5075 42.2028L39.5309 30.1794L36.1722 26.8206L24.1487 38.8441L27.5075 42.2028ZM36.1722 30.1794L46.8597 40.8669L50.2184 37.5081L39.5309 26.8206L36.1722 30.1794ZM15.1406 9.5H41.8594V4.75H15.1406V9.5ZM47.5 15.1406V41.8594H52.25V15.1406H47.5ZM41.8594 47.5H15.1406V52.25H41.8594V47.5ZM9.5 41.8594V15.1406H4.75V41.8594H9.5ZM15.1406 47.5C12.0254 47.5 9.5 44.9746 9.5 41.8594H4.75C4.75 47.598 9.40204 52.25 15.1406 52.25V47.5ZM47.5 41.8594C47.5 44.9746 44.9746 47.5 41.8594 47.5V52.25C47.598 52.25 52.25 47.598 52.25 41.8594H47.5ZM41.8594 9.5C44.9746 9.5 47.5 12.0254 47.5 15.1406H52.25C52.25 9.40204 47.598 4.75 41.8594 4.75V9.5ZM15.1406 4.75C9.40204 4.75 4.75 9.40204 4.75 15.1406H9.5C9.5 12.0254 12.0254 9.5 15.1406 9.5V4.75ZM20.7813 19.1484C20.7813 20.0502 20.0502 20.7813 19.1484 20.7813V25.5313C22.6736 25.5313 25.5313 22.6736 25.5313 19.1484H20.7813ZM19.1484 20.7813C18.2467 20.7813 17.5156 20.0502 17.5156 19.1484H12.7656C12.7656 22.6736 15.6233 25.5313 19.1484 25.5313V20.7813ZM17.5156 19.1484C17.5156 18.2467 18.2467 17.5156 19.1484 17.5156V12.7656C15.6233 12.7656 12.7656 15.6233 12.7656 19.1484H17.5156ZM19.1484 17.5156C20.0502 17.5156 20.7813 18.2467 20.7813 19.1484H25.5313C25.5313 15.6233 22.6736 12.7656 19.1484 12.7656V17.5156Z" fill="#0B3954"/>
</svg>
