<svg width="131" height="132" viewBox="0 0 131 132" fill="none" xmlns="http://www.w3.org/2000/svg">
<rect y="0.5" width="131" height="131" rx="65.5" fill="#0B3954"/>
<path d="M62.3799 36.18L45.8799 42.36C42.7299 43.56 40.1499 47.28 40.1499 50.67V74.97C40.1499 77.4 41.7399 80.61 43.6899 82.05L60.1899 94.38C63.0999 96.57 67.8699 96.57 70.7799 94.38L87.2799 82.05C89.2299 80.58 90.8199 77.4 90.8199 74.97V50.67C90.8199 47.31 88.2399 43.56 85.0899 42.39L68.5899 36.21C66.9099 35.55 64.0899 35.55 62.3799 36.18Z" fill="white"/>
<path d="M61.48 72.69C60.91 72.69 60.34 72.48 59.89 72.03L55.06 67.2C54.19 66.33 54.19 64.89 55.06 64.02C55.93 63.15 57.37 63.15 58.24 64.02L61.48 67.26L72.79 55.95C73.66 55.08 75.1 55.08 75.97 55.95C76.84 56.82 76.84 58.26 75.97 59.13L63.07 72.03C62.62 72.48 62.05 72.69 61.48 72.69Z" fill="#292D32"/>
</svg>
