<svg width="32" height="32" viewBox="0 0 32 32" fill="none" xmlns="http://www.w3.org/2000/svg">
<path d="M17.5145 8.36365H9.36907C9.03816 8.36365 8.71998 8.37637 8.41452 8.41456C4.99089 8.70728 3.27271 10.7309 3.27271 14.46V19.5509C3.27271 24.6418 5.30907 25.6473 9.36907 25.6473H9.87816C10.1582 25.6473 10.5273 25.8382 10.6927 26.0546L12.22 28.0909C12.8945 28.9946 13.9891 28.9946 14.6636 28.0909L16.1909 26.0546C16.3818 25.8 16.6873 25.6473 17.0054 25.6473H17.5145C21.2436 25.6473 23.2673 23.9418 23.56 20.5055C23.5982 20.2 23.6109 19.8818 23.6109 19.5509V14.46C23.6109 10.4 21.5745 8.36365 17.5145 8.36365ZM8.99998 18.5455C8.28725 18.5455 7.72725 17.9727 7.72725 17.2727C7.72725 16.5727 8.29998 16 8.99998 16C9.69998 16 10.2727 16.5727 10.2727 17.2727C10.2727 17.9727 9.69998 18.5455 8.99998 18.5455ZM13.4418 18.5455C12.7291 18.5455 12.1691 17.9727 12.1691 17.2727C12.1691 16.5727 12.7418 16 13.4418 16C14.1418 16 14.7145 16.5727 14.7145 17.2727C14.7145 17.9727 14.1545 18.5455 13.4418 18.5455ZM17.8963 18.5455C17.1836 18.5455 16.6236 17.9727 16.6236 17.2727C16.6236 16.5727 17.1963 16 17.8963 16C18.5963 16 19.1691 16.5727 19.1691 17.2727C19.1691 17.9727 18.5963 18.5455 17.8963 18.5455Z" fill="#1C2A3A"/>
<path d="M28.7019 9.36907V14.46C28.7019 17.0054 27.9128 18.7363 26.3346 19.6909C25.9528 19.92 25.5073 19.6145 25.5073 19.1691L25.5201 14.46C25.5201 9.36907 22.6055 6.45452 17.5146 6.45452L9.76371 6.46725C9.31825 6.46725 9.0128 6.0218 9.24189 5.63998C10.1964 4.0618 11.9273 3.27271 14.4601 3.27271H22.6055C26.6655 3.27271 28.7019 5.30907 28.7019 9.36907Z" fill="#1C2A3A"/>
</svg>
