<svg width="32" height="32" viewBox="0 0 32 32" fill="none" xmlns="http://www.w3.org/2000/svg">
<path d="M12.1818 3.27271C8.84726 3.27271 6.13635 5.98361 6.13635 9.31816C6.13635 12.5891 8.69453 15.2363 12.0291 15.3509C12.1309 15.3382 12.2327 15.3382 12.3091 15.3509C12.3345 15.3509 12.3473 15.3509 12.3727 15.3509C12.3854 15.3509 12.3854 15.3509 12.3982 15.3509C15.6564 15.2363 18.2145 12.5891 18.2273 9.31816C18.2273 5.98361 15.5164 3.27271 12.1818 3.27271Z" fill="#1C2A3A"/>
<path d="M18.6473 18.7363C15.0964 16.369 9.3055 16.369 5.72914 18.7363C4.11277 19.8181 3.22186 21.2817 3.22186 22.8472C3.22186 24.4126 4.11277 25.8635 5.71641 26.9326C7.49823 28.129 9.84004 28.7272 12.1819 28.7272C14.5237 28.7272 16.8655 28.129 18.6473 26.9326C20.251 25.8508 21.1419 24.3999 21.1419 22.8217C21.1291 21.2563 20.251 19.8054 18.6473 18.7363Z" fill="#1C2A3A"/>
<path d="M26.1691 10.0692C26.3728 12.5383 24.6164 14.7019 22.1855 14.9947C22.1728 14.9947 22.1728 14.9947 22.16 14.9947H22.1218C22.0455 14.9947 21.9691 14.9947 21.9055 15.0201C20.6709 15.0838 19.5382 14.6892 18.6855 13.9638C19.9964 12.7928 20.7473 11.0365 20.5946 9.12739C20.5055 8.09648 20.1491 7.15466 19.6146 6.35284C20.0982 6.11103 20.6582 5.9583 21.2309 5.90739C23.7255 5.69103 25.9528 7.54921 26.1691 10.0692Z" fill="#1C2A3A"/>
<path d="M28.7146 21.8417C28.6128 23.0762 27.8237 24.1453 26.5 24.8708C25.2273 25.5708 23.6237 25.9017 22.0328 25.8635C22.9491 25.0362 23.4837 24.0053 23.5855 22.9108C23.7128 21.3326 22.9619 19.8181 21.4601 18.609C20.6073 17.9344 19.6146 17.3999 18.5328 17.0053C21.3455 16.1908 24.8837 16.7381 27.06 18.4944C28.231 19.4362 28.8291 20.6199 28.7146 21.8417Z" fill="#1C2A3A"/>
</svg>
