<svg width="16" height="17" viewBox="0 0 16 17" fill="none" xmlns="http://www.w3.org/2000/svg">
<path fill-rule="evenodd" clip-rule="evenodd" d="M7.91342 0.586487C7.43082 0.611177 6.95207 0.989138 6.58221 1.71925L5.17802 4.52763C4.98881 4.91602 4.48091 5.29446 4.05268 5.36417L1.51319 5.78244C-0.110091 6.06128 -0.488524 7.23642 0.676653 8.4016L2.65845 10.3834C2.98709 10.712 3.17631 11.3594 3.08668 11.8374L2.51903 14.2872C2.07088 16.2192 3.1066 16.9662 4.80955 15.9603L7.1897 14.5462C7.3881 14.4262 7.64848 14.3618 7.91342 14.353V0.586487Z" fill="#FEB052"/>
<path fill-rule="evenodd" clip-rule="evenodd" d="M7.91345 14.3544C8.22036 14.3442 8.53338 14.4086 8.76321 14.5476L11.1434 15.9617C12.8463 16.9775 13.882 16.2207 13.4339 14.2887L12.8662 11.8388C12.7567 11.3707 12.9459 10.7234 13.2745 10.3948L15.2563 8.41297C16.4215 7.23783 16.0431 6.0627 14.4198 5.79381L11.8803 5.37554C11.4521 5.29587 10.9442 4.9274 10.755 4.539L9.35077 1.73063C8.95381 0.941857 8.43141 0.561409 7.91345 0.587902V14.3544Z" fill="#FEB052"/>
</svg>
