<svg width="22" height="21" viewBox="0 0 22 21" fill="none" xmlns="http://www.w3.org/2000/svg">
<path fill-rule="evenodd" clip-rule="evenodd" d="M10.9326 0.818237C10.3184 0.849661 9.70905 1.3307 9.23832 2.25994L7.45117 5.83424C7.21035 6.32856 6.56394 6.8102 6.01892 6.89892L2.78684 7.43126C0.720847 7.78616 0.239204 9.28179 1.72216 10.7647L4.24445 13.287C4.66271 13.7053 4.90354 14.5292 4.78946 15.1376L4.067 18.2556C3.49663 20.7145 4.81481 21.6651 6.98221 20.3849L10.0115 18.5851C10.264 18.4324 10.5954 18.3505 10.9326 18.3393V0.818237Z" fill="#1C2A3A"/>
<path fill-rule="evenodd" clip-rule="evenodd" d="M10.9326 18.341C11.3232 18.3281 11.7216 18.41 12.0141 18.5869L15.0434 20.3867C17.2108 21.6795 18.529 20.7162 17.9586 18.2573L17.2361 15.1393C17.0967 14.5436 17.3375 13.7197 17.7558 13.3015L20.2781 10.7792C21.761 9.28356 21.2794 7.78793 19.2134 7.44571L15.9813 6.91336C15.4363 6.81197 14.7899 6.343 14.5491 5.84868L12.7619 2.27438C12.2567 1.2705 11.5918 0.78629 10.9326 0.820005V18.341Z" fill="#1C2A3A"/>
</svg>
